<svg width="650" height="449" viewBox="0 0 650 449" fill="none" xmlns="http://www.w3.org/2000/svg">
<path fill-rule="evenodd" clip-rule="evenodd" d="M297.494 336.373C289.35 328.997 284.279 318.394 284.279 306.716C284.279 284.588 302.104 266.763 324.232 266.763C346.359 266.763 364.184 284.588 364.184 306.716C364.184 318.241 359.267 328.536 351.584 335.912L362.34 342.52L436.099 387.543C426.726 407.212 433.794 431.184 453.156 442.401C473.44 454.08 499.255 447.165 510.934 426.881C522.612 406.598 515.697 380.782 495.414 369.103C477.896 358.962 456.076 362.803 443.014 377.248L369.716 332.531C372.329 328.075 374.173 323.158 375.248 317.933H470.674H566.099C569.634 337.756 586.844 352.815 607.742 352.815C631.099 352.815 650 333.914 650 310.557C650 287.2 631.099 268.3 607.742 268.3C586.076 268.3 568.251 284.588 565.792 305.64H471.135H376.478C376.324 299.647 375.248 293.808 373.251 288.583L442.092 246.787C455.154 261.385 476.974 265.226 494.645 255.085C514.929 243.406 521.844 217.59 510.165 197.307C498.487 177.023 472.671 170.108 452.388 181.787C433.18 192.85 425.957 216.668 435.331 236.337L367.719 277.366C364.338 272.449 360.189 267.992 355.426 264.458L460.993 83.1341C465.142 84.5171 469.444 85.1318 473.901 85.1318C497.258 85.1318 516.158 66.2311 516.158 42.8741C516.158 19.5171 497.104 0.923706 473.747 0.923706C450.39 0.923706 431.489 19.8244 431.489 43.1814C431.489 57.6258 438.712 70.38 449.775 77.9095L344.669 258.465C340.059 256.468 335.142 255.238 330.071 254.624V169.34C350.662 166.574 366.643 148.902 366.643 127.543C366.643 104.186 347.742 85.2854 324.385 85.2854C301.028 85.2854 282.128 104.186 282.128 127.543C282.128 148.595 297.648 166.113 317.778 169.34V254.777C312.4 255.392 307.329 256.928 302.565 259.08L198.688 78.2169C209.905 70.6873 217.281 57.7795 217.281 43.1814C217.281 19.8244 198.381 0.923706 175.024 0.923706C151.667 0.923706 132.766 19.8244 132.766 43.1814C132.766 66.5384 151.667 85.4391 175.024 85.4391C179.326 85.4391 183.629 84.8244 187.624 83.5951L291.809 265.687C287.506 269.068 283.664 273.217 280.591 277.827L212.671 236.491C222.045 216.822 214.823 193.004 195.615 181.94C175.331 170.262 149.515 177.177 137.837 197.46C126.158 217.744 133.073 243.56 153.357 255.238C171.028 265.38 192.849 261.385 205.91 246.94L275.213 288.891C273.215 294.115 272.139 299.801 271.986 305.794H84.208C81.7494 284.588 63.9244 268.3 42.2577 268.3C18.9007 268.3 0 287.2 0 310.557C0 333.914 18.9007 352.815 42.2577 352.815C63.156 352.815 80.3664 337.756 83.9007 317.933H273.215C274.444 323.465 276.442 328.536 279.208 333.146L206.064 377.401C193.002 362.803 171.028 358.808 153.511 368.95C133.227 380.628 126.312 406.444 137.991 426.728C149.669 447.011 175.485 453.926 195.768 442.248C214.976 431.184 222.199 407.366 212.825 387.697L286.738 342.981L297.494 336.373Z" fill="#1E1E1E"/>
<path d="M436.551 387.758L436.745 387.351L436.36 387.116L362.602 342.093L362.601 342.093L352.393 335.822C359.901 328.393 364.684 318.154 364.684 306.716C364.684 284.312 346.635 266.263 324.232 266.263C301.828 266.263 283.779 284.312 283.779 306.716C283.779 318.306 288.712 328.849 296.669 336.293L286.479 342.553L286.476 342.554L212.566 387.269L212.179 387.503L212.374 387.912C221.635 407.346 214.5 430.882 195.519 441.814C175.474 453.355 149.964 446.522 138.424 426.478C126.883 406.433 133.716 380.923 153.76 369.383L153.761 369.383C171.068 359.363 192.783 363.308 205.691 377.735L205.968 378.044L206.323 377.829L279.467 333.574L279.893 333.316L279.637 332.889C276.9 328.327 274.922 323.307 273.703 317.825L273.616 317.433H273.215H83.9007H83.482L83.4085 317.845C79.9157 337.435 62.9081 352.315 42.2577 352.315C19.1769 352.315 0.5 333.638 0.5 310.557C0.5 287.477 19.1769 268.8 42.2577 268.8C63.666 268.8 81.2815 284.893 83.7114 305.851L83.7627 306.294H84.208H271.986H272.473L272.486 305.807C272.638 299.865 273.704 294.236 275.68 289.069L275.829 288.679L275.472 288.463L206.169 246.513L205.816 246.299L205.539 246.605C192.632 260.879 171.068 264.827 153.606 254.805C133.563 243.264 126.729 217.755 138.27 197.71C149.811 177.666 175.32 170.833 195.365 182.374C214.346 193.307 221.482 216.842 212.22 236.276L212.026 236.684L212.411 236.918L280.331 278.254L280.741 278.503L281.007 278.104C284.051 273.538 287.857 269.428 292.117 266.081L292.457 265.814L292.242 265.439L188.058 83.3468L187.859 82.9996L187.477 83.1172C183.532 84.331 179.28 84.9391 175.024 84.9391C151.943 84.9391 133.266 66.2622 133.266 43.1814C133.266 20.1006 151.943 1.42371 175.024 1.42371C198.104 1.42371 216.781 20.1006 216.781 43.1814C216.781 57.6079 209.493 70.3622 198.409 77.8017L198.022 78.0616L198.254 78.4659L302.131 259.329L302.357 259.722L302.771 259.535C307.494 257.402 312.515 255.882 317.835 255.274L318.278 255.223V254.777V169.34V168.914L317.857 168.846C297.964 165.657 282.628 148.344 282.628 127.543C282.628 104.462 301.305 85.7854 324.385 85.7854C347.466 85.7854 366.143 104.462 366.143 127.543C366.143 148.648 350.352 166.111 330.004 168.844L329.571 168.902V169.34V254.624V255.067L330.011 255.12C335.041 255.73 339.911 256.948 344.47 258.924L344.878 259.1L345.101 258.717L450.208 78.1611L450.442 77.7584L450.057 77.4962C439.126 70.057 431.989 57.4556 431.989 43.1814C431.989 20.1006 450.666 1.42371 473.747 1.42371C496.835 1.42371 515.658 19.8003 515.658 42.8741C515.658 65.9549 496.982 84.6318 473.901 84.6318C469.491 84.6318 465.243 84.0237 461.151 82.6598L460.765 82.5312L460.561 82.8826L354.993 264.206L354.768 264.593L355.128 264.86C359.842 268.357 363.954 272.772 367.307 277.649L367.574 278.038L367.978 277.793L435.59 236.765L435.977 236.53L435.782 236.122C426.521 216.688 433.656 193.153 452.637 182.22C472.682 170.679 498.192 177.512 509.732 197.556C521.273 217.601 514.44 243.111 494.396 254.651C476.931 264.674 455.37 260.876 442.465 246.453L442.188 246.144L441.833 246.359L372.991 288.156L372.635 288.372L372.784 288.762C374.759 293.928 375.825 299.71 375.978 305.653L375.99 306.14H376.478H471.135H565.792H566.237L566.289 305.698C568.718 284.895 586.333 268.8 607.742 268.8C630.823 268.8 649.5 287.477 649.5 310.557C649.5 333.638 630.823 352.315 607.742 352.315C587.092 352.315 570.084 337.435 566.592 317.845L566.518 317.433H566.099H470.674H375.248H374.841L374.758 317.832C373.693 323.007 371.868 327.872 369.285 332.278L369.036 332.702L369.456 332.958L442.754 377.674L443.107 377.89L443.385 377.583C456.291 363.311 477.853 359.515 495.163 369.536L495.164 369.537C515.208 381.077 522.042 406.587 510.5 426.632C498.96 446.676 473.451 453.509 453.405 441.968C434.273 430.883 427.288 407.195 436.551 387.758Z" stroke="#1E1E1E" stroke-opacity="0.2"/>
</svg>
