<svg width="364" height="273" viewBox="0 0 364 273" fill="none" xmlns="http://www.w3.org/2000/svg">
<path fill-rule="evenodd" clip-rule="evenodd" d="M114.632 129.177C111.494 126.337 109.54 122.254 109.54 117.756C109.54 109.235 116.408 102.371 124.935 102.371C133.461 102.371 140.33 109.235 140.33 117.756C140.33 122.194 138.435 126.159 135.474 128.999L139.619 131.544L168.04 148.882C164.428 156.456 167.152 165.687 174.613 170.007C182.428 174.504 192.376 171.841 196.876 164.03C201.376 156.219 198.711 146.278 190.896 141.781C184.145 137.875 175.738 139.355 170.705 144.917L142.461 127.698C143.468 125.981 144.178 124.088 144.593 122.076H181.363H218.132C219.494 129.709 226.126 135.508 234.179 135.508C243.179 135.508 250.462 128.23 250.462 119.236C250.462 110.241 243.179 102.963 234.179 102.963C225.83 102.963 218.961 109.235 218.014 117.342H181.54H145.066C145.007 115.034 144.593 112.786 143.823 110.774L170.349 94.6784C175.382 100.3 183.79 101.779 190.599 97.8738C198.415 93.3766 201.08 83.4354 196.58 75.6244C192.08 67.8134 182.132 65.1506 174.316 69.6478C166.915 73.9083 164.132 83.0803 167.744 90.6546L141.691 106.454C140.389 104.56 138.79 102.844 136.954 101.483L177.632 31.6581C179.231 32.1907 180.889 32.4274 182.606 32.4274C191.606 32.4274 198.889 25.149 198.889 16.1545C198.889 7.16006 191.547 0 182.547 0C173.547 0 166.264 7.2784 166.264 16.2729C166.264 21.8352 169.047 26.7467 173.31 29.6462L132.81 99.1756C131.033 98.4064 129.139 97.933 127.185 97.6963V64.8547C135.119 63.7896 141.277 56.9846 141.277 48.7594C141.277 39.7649 133.994 32.4865 124.994 32.4865C115.994 32.4865 108.711 39.7649 108.711 48.7594C108.711 56.8662 114.691 63.6121 122.448 64.8547V97.7555C120.375 97.9922 118.422 98.5839 116.586 99.4123L76.5595 29.7645C80.8819 26.865 83.724 21.8944 83.724 16.2729C83.724 7.2784 76.4411 0 67.4411 0C58.441 0 51.1581 7.2784 51.1581 16.2729C51.1581 25.2673 58.441 32.5457 67.4411 32.5457C69.099 32.5457 70.7569 32.309 72.2963 31.8356L112.441 101.957C110.783 103.259 109.303 104.856 108.119 106.632L81.9477 90.7138C85.5596 83.1395 82.7766 73.9675 75.3753 69.707C67.5595 65.2098 57.6121 67.8726 53.1121 75.6836C48.612 83.4945 51.2765 93.4358 59.0923 97.933C65.9016 101.838 74.3095 100.3 79.3424 94.7376L106.046 110.892C105.277 112.904 104.862 115.093 104.803 117.401H32.4475C31.5001 109.235 24.6317 102.963 16.283 102.963C7.28292 102.963 0 110.241 0 119.236C0 128.23 7.28292 135.508 16.283 135.508C24.3356 135.508 30.9672 129.709 32.3291 122.076H105.277C105.75 124.206 106.52 126.159 107.586 127.934L79.4016 144.976C74.3687 139.355 65.9016 137.816 59.1516 141.722C51.3357 146.219 48.6712 156.16 53.1713 163.971C57.6713 171.782 67.6187 174.445 75.4345 169.948C82.8359 165.687 85.6188 156.515 82.0069 148.941L110.487 131.721L114.632 129.177Z" fill="#B5F2E1"/>
<path d="M11.5421 212.398C9.77972 212.398 8.22837 212.038 6.888 211.318C5.54764 210.598 4.50513 209.593 3.76048 208.302C3.04065 206.987 2.68074 205.473 2.68074 203.76V194.377C2.68074 192.665 3.04065 191.163 3.76048 189.872C4.50513 188.557 5.54764 187.539 6.888 186.819C8.22837 186.099 9.77972 185.739 11.5421 185.739C13.3044 185.739 14.8557 186.099 16.1961 186.819C17.5613 187.539 18.6038 188.557 19.3236 189.872C20.0683 191.163 20.4406 192.665 20.4406 194.377V203.76C20.4406 205.473 20.0683 206.987 19.3236 208.302C18.6038 209.593 17.5613 210.598 16.1961 211.318C14.8557 212.038 13.3044 212.398 11.5421 212.398ZM11.5421 210.127C13.4285 210.127 14.9426 209.556 16.0844 208.414C17.2262 207.272 17.7971 205.758 17.7971 203.872V194.34C17.7971 192.454 17.2262 190.94 16.0844 189.798C14.9426 188.631 13.4285 188.048 11.5421 188.048C9.68044 188.048 8.17873 188.631 7.03693 189.798C5.89514 190.94 5.32424 192.454 5.32424 194.34V203.872C5.32424 205.758 5.89514 207.272 7.03693 208.414C8.17873 209.556 9.68044 210.127 11.5421 210.127ZM42.2614 197.952C42.6338 199.143 42.8199 200.719 42.8199 202.68C42.8199 204.666 42.6586 206.205 42.3359 207.297C41.8891 208.886 41.07 210.139 39.8786 211.057C38.712 211.951 37.2351 212.398 35.4479 212.398C34.4799 212.398 33.5863 212.212 32.7672 211.839C31.9481 211.442 31.2655 210.884 30.7194 210.164C30.6697 210.114 30.6201 210.102 30.5705 210.127C30.5456 210.127 30.5332 210.152 30.5332 210.201V218.951C30.5332 219.199 30.4091 219.323 30.1609 219.323H28.262C28.0138 219.323 27.8897 219.199 27.8897 218.951V193.633C27.8897 193.384 28.0138 193.26 28.262 193.26H30.1609C30.4091 193.26 30.5332 193.384 30.5332 193.633V195.196C30.5332 195.246 30.5456 195.283 30.5705 195.308C30.6201 195.308 30.6697 195.283 30.7194 195.234C31.2655 194.514 31.9356 193.955 32.7299 193.558C33.5491 193.161 34.455 192.963 35.4479 192.963C37.1854 192.963 38.6375 193.409 39.8041 194.303C40.9955 195.196 41.8147 196.413 42.2614 197.952ZM39.3201 207.371C39.5931 206.825 39.7917 206.217 39.9158 205.547C40.0647 204.852 40.1392 203.896 40.1392 202.68C40.1392 201.514 40.0896 200.608 39.9903 199.962C39.891 199.292 39.7172 198.696 39.469 198.175C39.1712 197.281 38.6375 196.574 37.868 196.053C37.1234 195.532 36.2298 195.271 35.1873 195.271C34.1944 195.271 33.3629 195.532 32.6927 196.053C32.0225 196.574 31.5261 197.269 31.2034 198.138C30.98 198.634 30.8187 199.218 30.7194 199.888C30.6201 200.558 30.5705 201.489 30.5705 202.68C30.5705 203.872 30.6201 204.815 30.7194 205.51C30.8187 206.18 30.9924 206.776 31.2406 207.297C31.5385 208.141 32.0225 208.824 32.6927 209.345C33.3877 209.841 34.2068 210.089 35.1501 210.089C36.1429 210.089 36.9993 209.841 37.7191 209.345C38.4637 208.848 38.9974 208.191 39.3201 207.371ZM63.8534 199.515C63.9526 200.21 64.0023 201.079 64.0023 202.122V203.313C64.0023 203.561 63.8782 203.685 63.63 203.685H51.6039C51.5046 203.685 51.455 203.735 51.455 203.834C51.5046 205.2 51.5791 206.081 51.6783 206.478C51.9514 207.595 52.5347 208.476 53.4283 209.121C54.3219 209.767 55.4636 210.089 56.8537 210.089C57.8962 210.089 58.8146 209.854 59.6089 209.382C60.4032 208.91 61.0237 208.24 61.4705 207.371C61.6194 207.148 61.7932 207.098 61.9917 207.223L63.4438 208.079C63.6424 208.203 63.692 208.377 63.5927 208.6C62.9722 209.792 62.0414 210.735 60.8003 211.43C59.5592 212.1 58.132 212.435 56.5186 212.435C54.7562 212.41 53.2793 211.988 52.0879 211.169C50.8965 210.35 50.0401 209.208 49.5189 207.744C49.0721 206.552 48.8487 204.84 48.8487 202.606C48.8487 201.563 48.8611 200.719 48.8859 200.074C48.9356 199.404 49.0348 198.808 49.1838 198.287C49.6057 196.673 50.4497 195.383 51.7156 194.415C53.0063 193.447 54.5577 192.963 56.3696 192.963C58.6284 192.963 60.3659 193.533 61.5822 194.675C62.7984 195.817 63.5555 197.43 63.8534 199.515ZM56.3696 195.271C55.1534 195.271 54.1357 195.594 53.3166 196.239C52.5223 196.86 52.001 197.703 51.7528 198.771C51.6039 199.292 51.5046 200.136 51.455 201.303C51.455 201.402 51.5046 201.452 51.6039 201.452H61.2471C61.3464 201.452 61.396 201.402 61.396 201.303C61.3464 200.186 61.2719 199.391 61.1726 198.92C60.8996 197.803 60.3411 196.922 59.4972 196.276C58.678 195.606 57.6355 195.271 56.3696 195.271ZM78.5677 193C80.5535 193 82.1296 193.583 83.2963 194.75C84.4877 195.916 85.0834 197.48 85.0834 199.441V211.728C85.0834 211.976 84.9593 212.1 84.7111 212.1H82.8122C82.564 212.1 82.4399 211.976 82.4399 211.728V199.962C82.4399 198.597 82.018 197.48 81.174 196.611C80.3549 195.743 79.2876 195.308 77.972 195.308C76.6068 195.308 75.5023 195.73 74.6583 196.574C73.8144 197.418 73.3924 198.523 73.3924 199.888V211.728C73.3924 211.976 73.2683 212.1 73.0201 212.1H71.1213C70.873 212.1 70.7489 211.976 70.7489 211.728V193.633C70.7489 193.384 70.873 193.26 71.1213 193.26H73.0201C73.2683 193.26 73.3924 193.384 73.3924 193.633V195.234C73.3924 195.283 73.4048 195.321 73.4297 195.345C73.4793 195.37 73.5165 195.358 73.5414 195.308C74.6335 193.769 76.309 193 78.5677 193ZM118.677 186.298C118.801 186.124 118.95 186.037 119.123 186.037H121.06C121.308 186.037 121.432 186.161 121.432 186.41V211.728C121.432 211.976 121.308 212.1 121.06 212.1H119.161C118.912 212.1 118.788 211.976 118.788 211.728V191.026C118.788 190.952 118.764 190.902 118.714 190.878C118.664 190.853 118.627 190.878 118.602 190.952L112.533 200.26C112.409 200.434 112.26 200.521 112.087 200.521H111.119C110.945 200.521 110.796 200.446 110.672 200.297L104.603 191.064C104.578 190.989 104.541 190.964 104.491 190.989C104.441 191.014 104.417 191.064 104.417 191.138V211.728C104.417 211.976 104.293 212.1 104.044 212.1H102.145C101.897 212.1 101.773 211.976 101.773 211.728V186.41C101.773 186.161 101.897 186.037 102.145 186.037H104.082C104.28 186.037 104.429 186.112 104.528 186.261L111.528 196.872C111.553 196.897 111.59 196.909 111.64 196.909C111.689 196.909 111.727 196.897 111.751 196.872L118.677 186.298ZM136.542 212.398C134.755 212.398 133.216 211.939 131.926 211.02C130.635 210.102 129.741 208.836 129.245 207.223C128.897 206.081 128.724 204.554 128.724 202.643C128.724 200.732 128.897 199.218 129.245 198.101C129.716 196.512 130.598 195.259 131.888 194.34C133.179 193.422 134.743 192.963 136.58 192.963C138.342 192.963 139.856 193.422 141.122 194.34C142.413 195.259 143.294 196.5 143.766 198.063C144.113 199.131 144.287 200.657 144.287 202.643C144.287 204.654 144.113 206.18 143.766 207.223C143.294 208.836 142.413 210.102 141.122 211.02C139.856 211.939 138.33 212.398 136.542 212.398ZM136.542 210.089C137.734 210.089 138.752 209.767 139.596 209.121C140.439 208.451 141.01 207.558 141.308 206.441C141.532 205.547 141.643 204.294 141.643 202.68C141.643 201.042 141.544 199.788 141.345 198.92C141.048 197.803 140.464 196.922 139.596 196.276C138.752 195.606 137.721 195.271 136.505 195.271C135.289 195.271 134.259 195.606 133.415 196.276C132.571 196.922 132 197.803 131.702 198.92C131.504 199.788 131.404 201.042 131.404 202.68C131.404 204.318 131.504 205.572 131.702 206.441C131.975 207.558 132.534 208.451 133.378 209.121C134.246 209.767 135.301 210.089 136.542 210.089ZM151.507 212.1C151.259 212.1 151.135 211.976 151.135 211.728V186.41C151.135 186.161 151.259 186.037 151.507 186.037H153.406C153.654 186.037 153.778 186.161 153.778 186.41V211.728C153.778 211.976 153.654 212.1 153.406 212.1H151.507ZM175.651 199.515C175.75 200.21 175.8 201.079 175.8 202.122V203.313C175.8 203.561 175.676 203.685 175.428 203.685H163.402C163.302 203.685 163.253 203.735 163.253 203.834C163.302 205.2 163.377 206.081 163.476 206.478C163.749 207.595 164.332 208.476 165.226 209.121C166.12 209.767 167.261 210.089 168.651 210.089C169.694 210.089 170.612 209.854 171.407 209.382C172.201 208.91 172.821 208.24 173.268 207.371C173.417 207.148 173.591 207.098 173.789 207.223L175.242 208.079C175.44 208.203 175.49 208.377 175.39 208.6C174.77 209.792 173.839 210.735 172.598 211.43C171.357 212.1 169.93 212.435 168.316 212.435C166.554 212.41 165.077 211.988 163.886 211.169C162.694 210.35 161.838 209.208 161.317 207.744C160.87 206.552 160.646 204.84 160.646 202.606C160.646 201.563 160.659 200.719 160.684 200.074C160.733 199.404 160.833 198.808 160.981 198.287C161.403 196.673 162.247 195.383 163.513 194.415C164.804 193.447 166.355 192.963 168.167 192.963C170.426 192.963 172.164 193.533 173.38 194.675C174.596 195.817 175.353 197.43 175.651 199.515ZM168.167 195.271C166.951 195.271 165.933 195.594 165.114 196.239C164.32 196.86 163.799 197.703 163.551 198.771C163.402 199.292 163.302 200.136 163.253 201.303C163.253 201.402 163.302 201.452 163.402 201.452H173.045C173.144 201.452 173.194 201.402 173.194 201.303C173.144 200.186 173.07 199.391 172.97 198.92C172.697 197.803 172.139 196.922 171.295 196.276C170.476 195.606 169.433 195.271 168.167 195.271ZM189.658 212.398C187.871 212.398 186.332 211.939 185.041 211.02C183.775 210.077 182.907 208.811 182.435 207.223C182.112 206.13 181.951 204.591 181.951 202.606C181.951 200.819 182.112 199.304 182.435 198.063C182.882 196.524 183.75 195.296 185.041 194.377C186.332 193.434 187.871 192.963 189.658 192.963C191.47 192.963 193.034 193.422 194.349 194.34C195.69 195.259 196.558 196.4 196.956 197.766C197.08 198.212 197.154 198.585 197.179 198.882V198.957C197.179 199.131 197.067 199.242 196.844 199.292L194.982 199.553H194.908C194.734 199.553 194.622 199.441 194.573 199.218L194.461 198.659C194.238 197.716 193.692 196.922 192.823 196.276C191.954 195.606 190.899 195.271 189.658 195.271C188.417 195.271 187.374 195.606 186.53 196.276C185.711 196.922 185.178 197.79 184.929 198.882C184.706 199.826 184.594 201.079 184.594 202.643C184.594 204.281 184.706 205.547 184.929 206.441C185.178 207.558 185.711 208.451 186.53 209.121C187.374 209.767 188.417 210.089 189.658 210.089C190.874 210.089 191.917 209.779 192.786 209.159C193.679 208.513 194.238 207.694 194.461 206.701V206.552L194.498 206.403C194.523 206.155 194.672 206.056 194.945 206.106L196.769 206.403C197.018 206.453 197.129 206.59 197.105 206.813L196.956 207.558C196.583 208.997 195.727 210.164 194.387 211.057C193.046 211.951 191.47 212.398 189.658 212.398ZM214.772 193.633C214.772 193.384 214.897 193.26 215.145 193.26H217.044C217.292 193.26 217.416 193.384 217.416 193.633V211.728C217.416 211.976 217.292 212.1 217.044 212.1H215.145C214.897 212.1 214.772 211.976 214.772 211.728V210.127C214.772 210.077 214.748 210.04 214.698 210.015C214.648 209.99 214.611 210.003 214.586 210.052C213.544 211.591 211.893 212.361 209.634 212.361C208.443 212.361 207.338 212.125 206.321 211.653C205.328 211.157 204.534 210.449 203.938 209.531C203.367 208.613 203.081 207.508 203.081 206.217V193.633C203.081 193.384 203.206 193.26 203.454 193.26H205.353C205.601 193.26 205.725 193.384 205.725 193.633V205.435C205.725 206.85 206.122 207.98 206.916 208.824C207.711 209.643 208.79 210.052 210.156 210.052C211.57 210.052 212.687 209.63 213.507 208.786C214.35 207.942 214.772 206.825 214.772 205.435V193.633ZM225.202 212.1C224.954 212.1 224.83 211.976 224.83 211.728V186.41C224.83 186.161 224.954 186.037 225.202 186.037H227.101C227.35 186.037 227.474 186.161 227.474 186.41V211.728C227.474 211.976 227.35 212.1 227.101 212.1H225.202ZM241.416 192.963C243.65 192.963 245.375 193.533 246.591 194.675C247.808 195.817 248.416 197.331 248.416 199.218V211.728C248.416 211.976 248.292 212.1 248.043 212.1H246.145C245.896 212.1 245.772 211.976 245.772 211.728V210.201C245.772 210.152 245.747 210.114 245.698 210.089C245.673 210.065 245.636 210.077 245.586 210.127C244.966 210.871 244.159 211.442 243.166 211.839C242.173 212.212 241.069 212.398 239.852 212.398C238.09 212.398 236.613 211.951 235.422 211.057C234.23 210.164 233.634 208.799 233.634 206.962C233.634 205.1 234.305 203.636 235.645 202.568C237.01 201.476 238.897 200.93 241.304 200.93H245.623C245.723 200.93 245.772 200.881 245.772 200.781V199.367C245.772 198.101 245.412 197.108 244.693 196.388C243.998 195.643 242.905 195.271 241.416 195.271C240.225 195.271 239.257 195.507 238.512 195.978C237.767 196.425 237.308 197.058 237.134 197.877C237.06 198.125 236.911 198.237 236.688 198.212L234.677 197.952C234.404 197.902 234.292 197.803 234.342 197.654C234.54 196.264 235.285 195.134 236.576 194.266C237.867 193.397 239.48 192.963 241.416 192.963ZM240.374 210.127C241.838 210.127 243.104 209.767 244.171 209.047C245.239 208.302 245.772 207.309 245.772 206.068V203.164C245.772 203.065 245.723 203.015 245.623 203.015H241.714C240.076 203.015 238.76 203.35 237.767 204.021C236.774 204.691 236.278 205.622 236.278 206.813C236.278 207.905 236.65 208.737 237.395 209.308C238.164 209.854 239.157 210.127 240.374 210.127ZM263.001 193.074C263.82 193.074 264.528 193.236 265.124 193.558C265.322 193.658 265.397 193.819 265.347 194.042L264.937 195.867C264.863 196.115 264.702 196.189 264.453 196.09C264.031 195.916 263.547 195.829 263.001 195.829L262.517 195.867C261.227 195.916 260.159 196.4 259.315 197.319C258.471 198.212 258.049 199.354 258.049 200.744V211.728C258.049 211.976 257.925 212.1 257.677 212.1H255.778C255.53 212.1 255.406 211.976 255.406 211.728V193.633C255.406 193.384 255.53 193.26 255.778 193.26H257.677C257.925 193.26 258.049 193.384 258.049 193.633V195.904C258.049 195.978 258.062 196.028 258.087 196.053C258.136 196.053 258.173 196.028 258.198 195.978C258.72 195.06 259.377 194.353 260.172 193.856C260.991 193.335 261.934 193.074 263.001 193.074ZM11.0208 262.398C8.21596 262.398 5.99442 261.765 4.3562 260.499C2.74279 259.233 1.93609 257.545 1.93609 255.435V254.281C1.93609 254.033 2.0602 253.909 2.30841 253.909H4.1328C4.38102 253.909 4.50513 254.033 4.50513 254.281V255.286C4.50513 256.726 5.10085 257.893 6.29228 258.786C7.48372 259.655 9.13436 260.089 11.2442 260.089C13.1555 260.089 14.6075 259.692 15.6004 258.898C16.5933 258.079 17.0897 256.999 17.0897 255.659C17.0897 254.79 16.8539 254.045 16.3823 253.425C15.9355 252.804 15.2281 252.221 14.26 251.675C13.3168 251.129 11.9764 250.496 10.2389 249.776C8.3773 249.031 6.92524 248.386 5.88273 247.84C4.86504 247.269 4.03352 246.549 3.38815 245.68C2.76761 244.787 2.45734 243.67 2.45734 242.33C2.45734 240.245 3.17717 238.631 4.61682 237.489C6.0813 236.323 8.07944 235.739 10.6112 235.739C13.3665 235.739 15.5383 236.385 17.1269 237.676C18.7155 238.966 19.5098 240.679 19.5098 242.814V243.633C19.5098 243.881 19.3857 244.005 19.1375 244.005H17.2759C17.0276 244.005 16.9035 243.881 16.9035 243.633V242.963C16.9035 241.523 16.3326 240.344 15.1908 239.425C14.0739 238.507 12.5101 238.048 10.4996 238.048C8.73721 238.048 7.38444 238.408 6.44121 239.128C5.49799 239.847 5.02638 240.89 5.02638 242.255C5.02638 243.149 5.24978 243.893 5.69657 244.489C6.16818 245.06 6.82595 245.569 7.66988 246.016C8.53864 246.438 9.8666 246.996 11.6538 247.691C13.4657 248.436 14.9178 249.131 16.01 249.776C17.1269 250.421 18.0205 251.216 18.6907 252.159C19.3857 253.077 19.7332 254.207 19.7332 255.547C19.7332 257.632 18.9637 259.295 17.4248 260.536C15.8858 261.777 13.7512 262.398 11.0208 262.398ZM33.3969 262.398C31.6098 262.398 30.0708 261.939 28.7801 261.02C27.4894 260.102 26.5958 258.836 26.0994 257.223C25.7519 256.081 25.5781 254.554 25.5781 252.643C25.5781 250.732 25.7519 249.218 26.0994 248.101C26.571 246.512 27.4521 245.259 28.7429 244.34C30.0336 243.422 31.5974 242.963 33.4342 242.963C35.1965 242.963 36.7106 243.422 37.9765 244.34C39.2672 245.259 40.1484 246.5 40.62 248.063C40.9675 249.131 41.1413 250.657 41.1413 252.643C41.1413 254.654 40.9675 256.18 40.62 257.223C40.1484 258.836 39.2672 260.102 37.9765 261.02C36.7106 261.939 35.1841 262.398 33.3969 262.398ZM33.3969 260.089C34.5884 260.089 35.606 259.767 36.45 259.121C37.2939 258.451 37.8648 257.558 38.1627 256.441C38.3861 255.547 38.4978 254.294 38.4978 252.68C38.4978 251.042 38.3985 249.788 38.1999 248.92C37.9021 247.803 37.3187 246.922 36.45 246.276C35.606 245.606 34.576 245.271 33.3597 245.271C32.1434 245.271 31.1133 245.606 30.2694 246.276C29.4255 246.922 28.8546 247.803 28.5567 248.92C28.3581 249.788 28.2588 251.042 28.2588 252.68C28.2588 254.318 28.3581 255.572 28.5567 256.441C28.8297 257.558 29.3882 258.451 30.2322 259.121C31.1009 259.767 32.1558 260.089 33.3969 260.089ZM55.2175 238.346C53.8523 238.346 52.9215 238.656 52.425 239.277C51.9286 239.872 51.6804 240.902 51.6804 242.367V243.111C51.6804 243.211 51.73 243.26 51.8293 243.26H55.9993C56.2476 243.26 56.3717 243.384 56.3717 243.633V245.308C56.3717 245.556 56.2476 245.68 55.9993 245.68H51.8293C51.73 245.68 51.6804 245.73 51.6804 245.829V261.728C51.6804 261.976 51.5563 262.1 51.3081 262.1H49.4464C49.1982 262.1 49.0741 261.976 49.0741 261.728V245.829C49.0741 245.73 49.0245 245.68 48.9252 245.68H46.4306C46.1824 245.68 46.0583 245.556 46.0583 245.308V243.633C46.0583 243.384 46.1824 243.26 46.4306 243.26H48.9252C49.0245 243.26 49.0741 243.211 49.0741 243.111V242.218C49.0741 240.679 49.2479 239.475 49.5954 238.606C49.9429 237.713 50.5386 237.067 51.3825 236.67C52.2513 236.248 53.4551 236.037 54.9941 236.037H56.0738C56.322 236.037 56.4461 236.161 56.4461 236.41V237.973C56.4461 238.222 56.322 238.346 56.0738 238.346H55.2175ZM70.9834 245.085C70.9834 245.333 70.8593 245.457 70.6111 245.457H66.4038C66.3045 245.457 66.2549 245.507 66.2549 245.606V256.59C66.2549 257.781 66.5155 258.625 67.0367 259.121C67.5828 259.593 68.4267 259.829 69.5685 259.829H70.4994C70.7476 259.829 70.8717 259.953 70.8717 260.201V261.728C70.8717 261.976 70.7476 262.1 70.4994 262.1C70.2015 262.125 69.7423 262.137 69.1218 262.137C67.3346 262.137 65.9818 261.802 65.0634 261.132C64.145 260.462 63.6858 259.221 63.6858 257.409V245.606C63.6858 245.507 63.6362 245.457 63.5369 245.457H61.2657C61.0175 245.457 60.8934 245.333 60.8934 245.085V243.633C60.8934 243.384 61.0175 243.26 61.2657 243.26H63.5369C63.6362 243.26 63.6858 243.211 63.6858 243.111V238.792C63.6858 238.544 63.8099 238.42 64.0581 238.42H65.8825C66.1307 238.42 66.2549 238.544 66.2549 238.792V243.111C66.2549 243.211 66.3045 243.26 66.4038 243.26H70.6111C70.8593 243.26 70.9834 243.384 70.9834 243.633V245.085ZM81.4925 262.1C81.294 262.1 81.1574 262.001 81.083 261.802L75.796 243.67L75.7587 243.558C75.7587 243.36 75.8828 243.26 76.1311 243.26H78.0671C78.2905 243.26 78.4271 243.372 78.4767 243.595L82.4233 258.265C82.4482 258.315 82.473 258.34 82.4978 258.34C82.5474 258.34 82.5847 258.315 82.6095 258.265L86.6306 243.595C86.6802 243.372 86.8168 243.26 87.0402 243.26H88.8273C89.0507 243.26 89.1872 243.36 89.2369 243.558L93.2952 258.228C93.32 258.277 93.3573 258.302 93.4069 258.302C93.4566 258.302 93.4938 258.277 93.5186 258.228L97.5769 243.595C97.6266 243.372 97.7631 243.26 97.9865 243.26L99.9226 243.298C100.047 243.298 100.134 243.335 100.183 243.409C100.258 243.484 100.283 243.583 100.258 243.707L94.8962 261.802C94.8217 262.001 94.6852 262.1 94.4867 262.1H92.5133C92.3148 262.1 92.1782 262.001 92.1038 261.802L88.0454 247.877C88.0206 247.828 87.9834 247.803 87.9337 247.803C87.9089 247.803 87.8841 247.828 87.8593 247.877L83.9126 261.802C83.8382 262.001 83.7017 262.1 83.5031 262.1H81.4925ZM112.022 242.963C114.256 242.963 115.981 243.533 117.197 244.675C118.413 245.817 119.021 247.331 119.021 249.218V261.728C119.021 261.976 118.897 262.1 118.649 262.1H116.75C116.502 262.1 116.378 261.976 116.378 261.728V260.201C116.378 260.152 116.353 260.114 116.303 260.089C116.279 260.065 116.241 260.077 116.192 260.127C115.571 260.871 114.764 261.442 113.772 261.839C112.779 262.212 111.674 262.398 110.458 262.398C108.696 262.398 107.219 261.951 106.027 261.057C104.836 260.164 104.24 258.799 104.24 256.962C104.24 255.1 104.91 253.636 106.251 252.568C107.616 251.476 109.502 250.93 111.91 250.93H116.229C116.328 250.93 116.378 250.881 116.378 250.781V249.367C116.378 248.101 116.018 247.108 115.298 246.388C114.603 245.643 113.511 245.271 112.022 245.271C110.83 245.271 109.862 245.507 109.118 245.978C108.373 246.425 107.914 247.058 107.74 247.877C107.665 248.125 107.517 248.237 107.293 248.212L105.283 247.952C105.01 247.902 104.898 247.803 104.948 247.654C105.146 246.264 105.891 245.134 107.181 244.266C108.472 243.397 110.086 242.963 112.022 242.963ZM110.979 260.127C112.444 260.127 113.71 259.767 114.777 259.047C115.844 258.302 116.378 257.309 116.378 256.068V253.164C116.378 253.065 116.328 253.015 116.229 253.015H112.32C110.681 253.015 109.366 253.35 108.373 254.021C107.38 254.691 106.884 255.622 106.884 256.813C106.884 257.905 107.256 258.737 108.001 259.308C108.77 259.854 109.763 260.127 110.979 260.127ZM133.607 243.074C134.426 243.074 135.133 243.236 135.729 243.558C135.928 243.658 136.002 243.819 135.953 244.042L135.543 245.867C135.469 246.115 135.307 246.189 135.059 246.09C134.637 245.916 134.153 245.829 133.607 245.829L133.123 245.867C131.832 245.916 130.765 246.4 129.921 247.319C129.077 248.212 128.655 249.354 128.655 250.744V261.728C128.655 261.976 128.531 262.1 128.283 262.1H126.384C126.136 262.1 126.011 261.976 126.011 261.728V243.633C126.011 243.384 126.136 243.26 126.384 243.26H128.283C128.531 243.26 128.655 243.384 128.655 243.633V245.904C128.655 245.978 128.667 246.028 128.692 246.053C128.742 246.053 128.779 246.028 128.804 245.978C129.325 245.06 129.983 244.353 130.777 243.856C131.596 243.335 132.54 243.074 133.607 243.074ZM155.327 249.515C155.427 250.21 155.476 251.079 155.476 252.122V253.313C155.476 253.561 155.352 253.685 155.104 253.685H143.078C142.979 253.685 142.929 253.735 142.929 253.834C142.979 255.2 143.053 256.081 143.152 256.478C143.425 257.595 144.009 258.476 144.902 259.121C145.796 259.767 146.938 260.089 148.328 260.089C149.37 260.089 150.289 259.854 151.083 259.382C151.877 258.91 152.498 258.24 152.944 257.371C153.093 257.148 153.267 257.098 153.466 257.223L154.918 258.079C155.116 258.203 155.166 258.377 155.067 258.6C154.446 259.792 153.515 260.735 152.274 261.43C151.033 262.1 149.606 262.435 147.993 262.435C146.23 262.41 144.753 261.988 143.562 261.169C142.37 260.35 141.514 259.208 140.993 257.744C140.546 256.552 140.323 254.84 140.323 252.606C140.323 251.563 140.335 250.719 140.36 250.074C140.41 249.404 140.509 248.808 140.658 248.287C141.08 246.673 141.924 245.383 143.19 244.415C144.48 243.447 146.032 242.963 147.844 242.963C150.102 242.963 151.84 243.533 153.056 244.675C154.272 245.817 155.03 247.43 155.327 249.515ZM147.844 245.271C146.627 245.271 145.61 245.594 144.791 246.239C143.996 246.86 143.475 247.703 143.227 248.771C143.078 249.292 142.979 250.136 142.929 251.303C142.929 251.402 142.979 251.452 143.078 251.452H152.721C152.82 251.452 152.87 251.402 152.87 251.303C152.82 250.186 152.746 249.391 152.647 248.92C152.374 247.803 151.815 246.922 150.971 246.276C150.152 245.606 149.11 245.271 147.844 245.271ZM188.516 237.973C188.516 238.222 188.392 238.346 188.144 238.346H174.48C174.38 238.346 174.331 238.395 174.331 238.495V247.691C174.331 247.79 174.38 247.84 174.48 247.84H184.048C184.297 247.84 184.421 247.964 184.421 248.212V249.776C184.421 250.024 184.297 250.148 184.048 250.148H174.48C174.38 250.148 174.331 250.198 174.331 250.297V261.728C174.331 261.976 174.207 262.1 173.958 262.1H172.06C171.811 262.1 171.687 261.976 171.687 261.728V236.41C171.687 236.161 171.811 236.037 172.06 236.037H188.144C188.392 236.037 188.516 236.161 188.516 236.41V237.973ZM199.512 262.398C197.725 262.398 196.186 261.939 194.895 261.02C193.604 260.102 192.711 258.836 192.214 257.223C191.867 256.081 191.693 254.554 191.693 252.643C191.693 250.732 191.867 249.218 192.214 248.101C192.686 246.512 193.567 245.259 194.858 244.34C196.148 243.422 197.712 242.963 199.549 242.963C201.311 242.963 202.826 243.422 204.091 244.34C205.382 245.259 206.263 246.5 206.735 248.063C207.082 249.131 207.256 250.657 207.256 252.643C207.256 254.654 207.082 256.18 206.735 257.223C206.263 258.836 205.382 260.102 204.091 261.02C202.826 261.939 201.299 262.398 199.512 262.398ZM199.512 260.089C200.703 260.089 201.721 259.767 202.565 259.121C203.409 258.451 203.98 257.558 204.278 256.441C204.501 255.547 204.613 254.294 204.613 252.68C204.613 251.042 204.513 249.788 204.315 248.92C204.017 247.803 203.434 246.922 202.565 246.276C201.721 245.606 200.691 245.271 199.475 245.271C198.258 245.271 197.228 245.606 196.384 246.276C195.54 246.922 194.969 247.803 194.672 248.92C194.473 249.788 194.374 251.042 194.374 252.68C194.374 254.318 194.473 255.572 194.672 256.441C194.945 257.558 195.503 258.451 196.347 259.121C197.216 259.767 198.271 260.089 199.512 260.089ZM225.497 243.633C225.497 243.384 225.621 243.26 225.869 243.26H227.768C228.017 243.26 228.141 243.384 228.141 243.633V261.728C228.141 261.976 228.017 262.1 227.768 262.1H225.869C225.621 262.1 225.497 261.976 225.497 261.728V260.127C225.497 260.077 225.472 260.04 225.423 260.015C225.373 259.99 225.336 260.003 225.311 260.052C224.268 261.591 222.618 262.361 220.359 262.361C219.168 262.361 218.063 262.125 217.045 261.653C216.053 261.157 215.258 260.449 214.663 259.531C214.092 258.613 213.806 257.508 213.806 256.217V243.633C213.806 243.384 213.93 243.26 214.179 243.26H216.077C216.326 243.26 216.45 243.384 216.45 243.633V255.435C216.45 256.85 216.847 257.98 217.641 258.824C218.435 259.643 219.515 260.052 220.88 260.052C222.295 260.052 223.412 259.63 224.231 258.786C225.075 257.942 225.497 256.825 225.497 255.435V243.633ZM243.374 243C245.359 243 246.936 243.583 248.102 244.75C249.294 245.916 249.889 247.48 249.889 249.441V261.728C249.889 261.976 249.765 262.1 249.517 262.1H247.618C247.37 262.1 247.246 261.976 247.246 261.728V249.962C247.246 248.597 246.824 247.48 245.98 246.611C245.161 245.743 244.094 245.308 242.778 245.308C241.413 245.308 240.308 245.73 239.464 246.574C238.62 247.418 238.198 248.523 238.198 249.888V261.728C238.198 261.976 238.074 262.1 237.826 262.1H235.927C235.679 262.1 235.555 261.976 235.555 261.728V243.633C235.555 243.384 235.679 243.26 235.927 243.26H237.826C238.074 243.26 238.198 243.384 238.198 243.633V245.234C238.198 245.283 238.211 245.321 238.236 245.345C238.285 245.37 238.322 245.358 238.347 245.308C239.439 243.769 241.115 243 243.374 243ZM268.551 236.41C268.551 236.161 268.675 236.037 268.924 236.037H270.822C271.071 236.037 271.195 236.161 271.195 236.41V261.728C271.195 261.976 271.071 262.1 270.822 262.1H268.924C268.675 262.1 268.551 261.976 268.551 261.728V260.164C268.551 260.114 268.526 260.089 268.477 260.089C268.452 260.065 268.415 260.077 268.365 260.127C267.819 260.847 267.136 261.405 266.317 261.802C265.523 262.199 264.629 262.398 263.637 262.398C261.899 262.398 260.435 261.951 259.243 261.057C258.077 260.164 257.27 258.948 256.823 257.409C256.476 256.292 256.302 254.716 256.302 252.68C256.302 250.62 256.451 249.081 256.749 248.063C257.195 246.475 258.014 245.234 259.206 244.34C260.397 243.422 261.874 242.963 263.637 242.963C264.605 242.963 265.498 243.161 266.317 243.558C267.136 243.931 267.819 244.477 268.365 245.196C268.415 245.246 268.452 245.271 268.477 245.271C268.526 245.246 268.551 245.209 268.551 245.159V236.41ZM267.881 257.223C268.104 256.726 268.266 256.143 268.365 255.473C268.464 254.802 268.514 253.872 268.514 252.68C268.514 251.489 268.464 250.558 268.365 249.888C268.266 249.193 268.092 248.585 267.844 248.063C267.546 247.219 267.05 246.549 266.355 246.053C265.684 245.532 264.878 245.271 263.934 245.271C262.942 245.271 262.085 245.519 261.365 246.016C260.646 246.512 260.124 247.17 259.802 247.989C259.504 248.535 259.28 249.156 259.131 249.851C259.007 250.521 258.945 251.464 258.945 252.68C258.945 253.847 258.995 254.765 259.094 255.435C259.193 256.081 259.367 256.664 259.615 257.185C259.913 258.079 260.435 258.786 261.179 259.308C261.949 259.829 262.855 260.089 263.897 260.089C264.89 260.089 265.722 259.829 266.392 259.308C267.062 258.786 267.558 258.091 267.881 257.223ZM285.19 242.963C287.424 242.963 289.149 243.533 290.366 244.675C291.582 245.817 292.19 247.331 292.19 249.218V261.728C292.19 261.976 292.066 262.1 291.818 262.1H289.919C289.671 262.1 289.547 261.976 289.547 261.728V260.201C289.547 260.152 289.522 260.114 289.472 260.089C289.447 260.065 289.41 260.077 289.36 260.127C288.74 260.871 287.933 261.442 286.94 261.839C285.947 262.212 284.843 262.398 283.627 262.398C281.864 262.398 280.387 261.951 279.196 261.057C278.005 260.164 277.409 258.799 277.409 256.962C277.409 255.1 278.079 253.636 279.419 252.568C280.785 251.476 282.671 250.93 285.079 250.93H289.398C289.497 250.93 289.547 250.881 289.547 250.781V249.367C289.547 248.101 289.187 247.108 288.467 246.388C287.772 245.643 286.68 245.271 285.19 245.271C283.999 245.271 283.031 245.507 282.286 245.978C281.542 246.425 281.082 247.058 280.909 247.877C280.834 248.125 280.685 248.237 280.462 248.212L278.451 247.952C278.178 247.902 278.067 247.803 278.116 247.654C278.315 246.264 279.059 245.134 280.35 244.266C281.641 243.397 283.254 242.963 285.19 242.963ZM284.148 260.127C285.612 260.127 286.878 259.767 287.946 259.047C289.013 258.302 289.547 257.309 289.547 256.068V253.164C289.547 253.065 289.497 253.015 289.398 253.015H285.488C283.85 253.015 282.534 253.35 281.542 254.021C280.549 254.691 280.052 255.622 280.052 256.813C280.052 257.905 280.425 258.737 281.169 259.308C281.939 259.854 282.932 260.127 284.148 260.127ZM307.487 245.085C307.487 245.333 307.362 245.457 307.114 245.457H302.907C302.808 245.457 302.758 245.507 302.758 245.606V256.59C302.758 257.781 303.019 258.625 303.54 259.121C304.086 259.593 304.93 259.829 306.072 259.829H307.002C307.251 259.829 307.375 259.953 307.375 260.201V261.728C307.375 261.976 307.251 262.1 307.002 262.1C306.705 262.125 306.245 262.137 305.625 262.137C303.838 262.137 302.485 261.802 301.567 261.132C300.648 260.462 300.189 259.221 300.189 257.409V245.606C300.189 245.507 300.139 245.457 300.04 245.457H297.769C297.521 245.457 297.397 245.333 297.397 245.085V243.633C297.397 243.384 297.521 243.26 297.769 243.26H300.04C300.139 243.26 300.189 243.211 300.189 243.111V238.792C300.189 238.544 300.313 238.42 300.561 238.42H302.386C302.634 238.42 302.758 238.544 302.758 238.792V243.111C302.758 243.211 302.808 243.26 302.907 243.26H307.114C307.362 243.26 307.487 243.384 307.487 243.633V245.085ZM315.873 239.835C315.278 239.835 314.781 239.636 314.384 239.239C313.987 238.842 313.788 238.346 313.788 237.75C313.788 237.129 313.987 236.633 314.384 236.261C314.781 235.864 315.278 235.665 315.873 235.665C316.469 235.665 316.966 235.864 317.363 236.261C317.76 236.633 317.958 237.129 317.958 237.75C317.958 238.346 317.76 238.842 317.363 239.239C316.966 239.636 316.469 239.835 315.873 239.835ZM314.831 262.063C314.583 262.063 314.459 261.939 314.459 261.69V243.595C314.459 243.347 314.583 243.223 314.831 243.223H316.73C316.978 243.223 317.102 243.347 317.102 243.595V261.69C317.102 261.939 316.978 262.063 316.73 262.063H314.831ZM332.251 262.398C330.464 262.398 328.925 261.939 327.634 261.02C326.344 260.102 325.45 258.836 324.954 257.223C324.606 256.081 324.432 254.554 324.432 252.643C324.432 250.732 324.606 249.218 324.954 248.101C325.425 246.512 326.307 245.259 327.597 244.34C328.888 243.422 330.452 242.963 332.289 242.963C334.051 242.963 335.565 243.422 336.831 244.34C338.122 245.259 339.003 246.5 339.474 248.063C339.822 249.131 339.996 250.657 339.996 252.643C339.996 254.654 339.822 256.18 339.474 257.223C339.003 258.836 338.122 260.102 336.831 261.02C335.565 261.939 334.038 262.398 332.251 262.398ZM332.251 260.089C333.443 260.089 334.46 259.767 335.304 259.121C336.148 258.451 336.719 257.558 337.017 256.441C337.24 255.547 337.352 254.294 337.352 252.68C337.352 251.042 337.253 249.788 337.054 248.92C336.756 247.803 336.173 246.922 335.304 246.276C334.46 245.606 333.43 245.271 332.214 245.271C330.998 245.271 329.968 245.606 329.124 246.276C328.28 246.922 327.709 247.803 327.411 248.92C327.213 249.788 327.113 251.042 327.113 252.68C327.113 254.318 327.213 255.572 327.411 256.441C327.684 257.558 328.243 258.451 329.087 259.121C329.955 259.767 331.01 260.089 332.251 260.089ZM354.662 243C356.648 243 358.224 243.583 359.391 244.75C360.582 245.916 361.178 247.48 361.178 249.441V261.728C361.178 261.976 361.054 262.1 360.806 262.1H358.907C358.659 262.1 358.535 261.976 358.535 261.728V249.962C358.535 248.597 358.113 247.48 357.269 246.611C356.449 245.743 355.382 245.308 354.067 245.308C352.701 245.308 351.597 245.73 350.753 246.574C349.909 247.418 349.487 248.523 349.487 249.888V261.728C349.487 261.976 349.363 262.1 349.115 262.1H347.216C346.968 262.1 346.844 261.976 346.844 261.728V243.633C346.844 243.384 346.968 243.26 347.216 243.26H349.115C349.363 243.26 349.487 243.384 349.487 243.633V245.234C349.487 245.283 349.499 245.321 349.524 245.345C349.574 245.37 349.611 245.358 349.636 245.308C350.728 243.769 352.404 243 354.662 243Z" fill="black"/>
</svg>
